# xmcd CD database file
#
# Track frame offsets:
#	150
#	31301
#	58607
#	67051
#	92196
#	115579
#	128593
#	153505
#	186584
#	218185
#	260469
#
# Disc length: 4144 seconds
#
# Revision: 0
# Processed by: cddbd v1.5.2PL0 Copyright (c) Steve Scherf et al.
# Submitted via: CDex 1.51
#
DISCID=9e102e0b
DTITLE=HUMIO ITABASHI - Invitation toJazz Piano
DYEAR=2009
DGENRE=Jazz
TTITLE0=Our love is here to stay
TTITLE1=Summertime
TTITLE2=Bluse in C
TTITLE3=Menuet
TTITLE4=Tabidachi
TTITLE5=Ame
TTITLE6=Marhica
TTITLE7=MAgarichokoutyou
TTITLE8=Yoisura
TTITLE9=Our love is here to stay
TTITLE10=Summertime
EXTD=YEAR: 2009
EXTT0=
EXTT1=
EXTT2=
EXTT3=
EXTT4=
EXTT5=
EXTT6=
EXTT7=
EXTT8=
EXTT9=
EXTT10=
PLAYORDER=
